<svg width="20" height="16" viewBox="0 0 20 16" fill="none" xmlns="http://www.w3.org/2000/svg">
<path d="M6.41256 11.0763L16.9955 0.493334C17.3244 0.164485 17.7429 6.10352e-05 18.2511 6.10352e-05C18.7593 6.10352e-05 19.1779 0.164485 19.5067 0.493334C19.8356 0.822183 20 1.24072 20 1.74894C20 2.25716 19.8356 2.6757 19.5067 3.00455L7.66816 14.8431C7.30942 15.2019 6.89088 15.3812 6.41256 15.3812C5.93423 15.3812 5.5157 15.2019 5.15695 14.8431L0.493273 10.1794C0.164424 9.85058 0 9.43205 0 8.92383C0 8.4156 0.164424 7.99707 0.493273 7.66822C0.822122 7.33937 1.24066 7.17495 1.74888 7.17495C2.2571 7.17495 2.67564 7.33937 3.00448 7.66822L6.41256 11.0763Z" fill="#FAFAFA"/>
</svg>
