<svg width="40" height="40" viewBox="0 0 40 40" fill="none" xmlns="http://www.w3.org/2000/svg">
<path d="M0.5 20C0.5 9.23045 9.23045 0.5 20 0.5C30.7696 0.5 39.5 9.23045 39.5 20C39.5 30.7696 30.7696 39.5 20 39.5C9.23045 39.5 0.5 30.7696 0.5 20Z" stroke="#2563EB"/>
<path d="M24.3984 21.75H21.4688V30.5H17.5625V21.75H14.3594V18.1562H17.5625V15.3828C17.5625 12.2578 19.4375 10.5 22.2891 10.5C23.6562 10.5 25.1016 10.7734 25.1016 10.7734V13.8594H23.5C21.9375 13.8594 21.4688 14.7969 21.4688 15.8125V18.1562H24.9453L24.3984 21.75Z" fill="#60A5FA"/>
</svg>
