<svg width="81" height="64" viewBox="0 0 81 64" fill="none" xmlns="http://www.w3.org/2000/svg">
<path d="M4.66602 15C2.16602 13.625 0.666016 11 0.666016 8C0.666016 3.625 4.16602 0 8.66602 0C11.541 0 14.166 1.625 15.541 4H41.666C43.041 1.625 45.666 0 48.666 0C53.041 0 56.666 3.625 56.666 8C56.666 11 55.041 13.625 52.666 15V29.125C55.041 30.5 56.666 33.125 56.666 36C56.666 40.5 53.041 44 48.666 44C45.666 44 43.041 42.5 41.666 40H15.541C14.166 42.5 11.541 44 8.66602 44C4.16602 44 0.666016 40.5 0.666016 36C0.666016 33.125 2.16602 30.5 4.66602 29.125V15ZM12.666 15V29.125C13.791 29.875 14.791 30.875 15.541 32H41.666C42.416 30.875 43.416 29.875 44.666 29.125V15C43.416 14.25 42.416 13.25 41.666 12H15.541C14.791 13.25 13.791 14.25 12.666 15ZM39.541 60C38.166 62.5 35.541 64 32.666 64C28.166 64 24.666 60.5 24.666 56C24.666 53.125 26.166 50.5 28.666 49.125V44H36.666V49.125C37.791 49.875 38.791 50.875 39.541 52H65.666C66.416 50.875 67.416 49.875 68.666 49.125V35C67.416 34.25 66.416 33.25 65.666 32H59.916C59.291 30.125 58.041 28.5 56.666 27.125V24H65.666C67.041 21.625 69.666 20 72.666 20C77.041 20 80.666 23.625 80.666 28C80.666 31 79.041 33.625 76.666 35V49.125C79.041 50.5 80.666 53.125 80.666 56C80.666 60.5 77.041 64 72.666 64C69.666 64 67.041 62.5 65.666 60H39.541Z" fill="#60A5FA"/>
</svg>
