<svg width="40" height="40" viewBox="0 0 40 40" fill="none" xmlns="http://www.w3.org/2000/svg">
<path d="M0.5 20C0.5 9.23045 9.23045 0.5 20 0.5C30.7696 0.5 39.5 9.23045 39.5 20C39.5 30.7696 30.7696 39.5 20 39.5C9.23045 39.5 0.5 30.7696 0.5 20Z" stroke="#2563EB"/>
<path d="M29.375 24.8359C29.5312 25.2266 29.4531 25.6953 29.1016 26.0859C28.9453 26.2422 28.75 26.3984 28.5938 26.4766C28.2031 26.7109 27.7734 26.8672 27.3828 26.9453C27.3047 26.9844 27.2266 27.0234 27.1484 27.0625C27.0312 27.1797 27.0312 27.3359 26.875 27.5703C26.7969 27.7266 26.6406 27.8828 26.4844 28C26.0938 28.2734 25.6641 28.2734 25.1953 28.3125C24.7656 28.3125 24.2969 28.3516 23.75 28.5078C23.5156 28.5859 23.2812 28.7422 23.0469 28.8984C22.3828 29.2891 21.4844 29.8359 19.9609 29.8359C18.4766 29.8359 17.5781 29.2891 16.9531 28.8984C16.6797 28.7422 16.4453 28.5859 16.2109 28.5078C15.6641 28.3516 15.1953 28.3125 14.7656 28.3125C14.2969 28.2734 13.8672 28.2734 13.4766 28C13.3203 27.9219 13.2031 27.7656 13.125 27.6484C12.9297 27.375 12.9688 27.1797 12.8125 27.0625C12.7344 27.0234 12.6562 26.9844 12.5781 26.9453C12.1484 26.8672 11.7578 26.6719 11.3672 26.4766C11.2109 26.3984 11.0547 26.2812 10.8984 26.125C10.5078 25.7344 10.4297 25.2656 10.5859 24.8359C10.7812 24.2891 11.25 24.1328 11.7188 23.8984C12.5781 23.4297 13.2422 22.8438 13.7109 22.1406C13.8281 21.9453 13.9453 21.75 14.0625 21.5156C14.1016 21.3984 14.1016 21.3594 14.0625 21.2812C14.0234 21.2422 13.9844 21.1641 13.9453 21.1641C13.7891 21.0469 13.6328 20.9688 13.5547 20.8906C13.3594 20.7734 13.2031 20.6562 13.0859 20.5781C12.7344 20.3438 12.5 20.0703 12.3047 19.7578C12.1094 19.3281 12.0703 18.8203 12.2266 18.3906C12.5 17.7656 13.0859 17.3359 13.8281 17.3359C13.9844 17.3359 14.1406 17.375 14.2578 17.4141C14.2969 17.4141 14.3359 17.4141 14.375 17.4141C14.375 16.9844 14.4141 16.5156 14.4531 16.0859C14.5703 14.4844 15.1172 13.6641 15.7031 13C16.0938 12.5703 16.5234 12.2188 17.0312 11.9453C17.8906 11.4375 18.9062 11.1641 20 11.1641C21.0547 11.1641 22.0703 11.4375 22.9688 11.9453C23.4375 12.2188 23.8672 12.5703 24.2578 13C24.8438 13.6641 25.3906 14.4844 25.5078 16.0859C25.5469 16.5156 25.5859 16.9844 25.5859 17.4141C25.625 17.4141 25.6641 17.4141 25.7031 17.4141C25.8203 17.375 25.9766 17.3359 26.1328 17.3359C26.875 17.3359 27.4609 17.7656 27.7344 18.3906C27.8906 18.8203 27.8516 19.3281 27.6562 19.7578C27.4609 20.0703 27.2266 20.3438 26.875 20.5781C26.7578 20.6562 26.6016 20.7734 26.4062 20.8906C26.3281 20.9688 26.1328 21.0469 26.0156 21.1641C25.9375 21.2031 25.8984 21.2422 25.8984 21.2812C25.8594 21.3203 25.8594 21.3984 25.8984 21.5156C25.9766 21.75 26.0938 21.9453 26.25 22.1406C26.7188 22.8438 27.4219 23.4688 28.3203 23.9375C28.3984 23.9766 28.4766 24.0156 28.5938 24.0547C28.6328 24.0547 28.6719 24.0938 28.7109 24.1328C29.0234 24.2891 29.2578 24.4844 29.375 24.8359ZM28.0469 25.5391C28.5938 25.2656 28.2812 25.1094 28.125 24.9922C25.1953 23.5859 24.7266 21.3984 24.6875 21.2422C24.6484 21.0469 24.6484 20.8906 24.8438 20.6562C25.0781 20.4609 25.9766 19.9141 26.25 19.7188C26.6797 19.4062 26.875 19.1328 26.7188 18.7422C26.6406 18.5078 26.4062 18.4297 26.1328 18.4297C26.0547 18.4297 25.9766 18.4297 25.8984 18.4297C25.4297 18.5469 25 18.7812 24.7266 18.8203C24.6875 18.8594 24.6484 18.8594 24.6094 18.8594C24.4922 18.8594 24.4531 18.7812 24.4531 18.625C24.4922 18.1172 24.5312 17.1016 24.4531 16.1641C24.375 14.875 23.9453 14.25 23.4375 13.7031C23.2031 13.4297 22.1094 12.2578 19.9609 12.2578C17.8516 12.2578 16.7578 13.4297 16.5234 13.7031C16.0156 14.25 15.5859 14.875 15.5078 16.1641C15.3906 17.1016 15.4688 18.1172 15.5078 18.625C15.5078 18.7812 15.4688 18.8594 15.3125 18.8594C15.3125 18.8594 15.2734 18.8594 15.2344 18.8594C14.9609 18.7812 14.5312 18.5469 14.0625 18.4297C13.9844 18.4297 13.9062 18.4297 13.8281 18.4297C13.5547 18.4297 13.3203 18.5078 13.2422 18.7812C13.0859 19.1328 13.2812 19.4453 13.7109 19.7188C13.9844 19.9141 14.8828 20.5 15.1172 20.6953C15.3125 20.8906 15.3125 21.0469 15.2734 21.2422C15.2344 21.3984 14.7656 23.5859 11.8359 24.9922C11.6797 25.1094 11.3672 25.2656 11.9141 25.5391C12.6953 26.0078 13.2422 25.9688 13.6719 26.2031C14.0234 26.4375 13.8281 26.9453 14.0625 27.1406C14.375 27.3359 15.3125 27.1016 16.5234 27.4922C17.5391 27.8438 18.1641 28.7812 20 28.7812C21.7969 28.7812 22.4219 27.8438 23.4375 27.4922C24.6484 27.1016 25.5859 27.3359 25.8984 27.1406C26.1328 26.9453 25.9375 26.4375 26.2891 26.2422C26.7188 25.9688 27.2656 26.0078 28.0469 25.5391Z" fill="#60A5FA"/>
</svg>
