<svg width="36" height="36" viewBox="0 0 36 36" fill="none" xmlns="http://www.w3.org/2000/svg">
<rect width="36" height="36" rx="8" fill="#3B82F6"/>
<path fill-rule="evenodd" clip-rule="evenodd" d="M13.1928 6C11.6619 6 10.4209 7.24208 10.4209 8.77427V27.2257C10.4209 28.7579 11.6619 30 13.1928 30C14.7236 30 15.9647 28.7579 15.9647 27.2257V11.5485H22.7234C24.2543 11.5485 25.4953 10.3065 25.4953 8.77427C25.4953 7.24208 24.2543 6 22.7234 6H13.1928ZM20.2391 21.5702C21.7727 21.5702 23.0159 20.327 23.0159 18.7934C23.0159 17.2598 21.7727 16.0165 20.2391 16.0165C18.7055 16.0165 17.4622 17.2598 17.4622 18.7934C17.4622 20.327 18.7055 21.5702 20.2391 21.5702Z" fill="#F5F5F5"/>
</svg>
