<svg width="60" height="60" viewBox="0 0 60 60" fill="none" xmlns="http://www.w3.org/2000/svg">
<rect width="60" height="60" rx="8" fill="#3B82F6"/>
<path fill-rule="evenodd" clip-rule="evenodd" d="M22.3888 11C19.9649 11 18 12.9666 18 15.3926V44.6074C18 47.0334 19.9649 49 22.3888 49C24.8127 49 26.7776 47.0334 26.7776 44.6074V19.7852H37.479C39.9028 19.7852 41.8678 17.8186 41.8678 15.3926C41.8678 12.9666 39.9028 11 37.479 11H22.3888ZM33.5455 35.6529C35.9737 35.6529 37.9422 33.6844 37.9422 31.2562C37.9422 28.828 35.9737 26.8595 33.5455 26.8595C31.1172 26.8595 29.1488 28.828 29.1488 31.2562C29.1488 33.6844 31.1172 35.6529 33.5455 35.6529Z" fill="#F5F5F5"/>
</svg>
