<svg width="61" height="64" viewBox="0 0 61 64" fill="none" xmlns="http://www.w3.org/2000/svg">
<path d="M47.8335 45.75C50.4585 47.5 52.3335 50.625 52.3335 54C52.3335 59.625 47.8335 64 42.3335 64C36.7085 64 32.3335 59.625 32.3335 54C32.3335 53 32.4585 52 32.7085 51L14.5835 35.125C13.2085 35.75 11.8335 36 10.3335 36C4.7085 36 0.333496 31.625 0.333496 26C0.333496 20.5 4.7085 16 10.3335 16C12.9585 16 15.4585 17.125 17.3335 19L40.3335 9.75C40.4585 4.375 44.8335 0 50.3335 0C55.8335 0 60.3335 4.5 60.3335 10C60.3335 14.75 56.9585 18.75 52.5835 19.75L47.8335 45.75ZM19.8335 29.125L37.9585 45C38.5835 44.75 39.3335 44.5 39.9585 44.375L44.7085 18.375C44.2085 18 43.7085 17.625 43.2085 17.125L20.2085 26.375C20.2085 27.25 20.0835 28.25 19.8335 29.125Z" fill="#60A5FA"/>
</svg>
