<svg width="65" height="66" viewBox="0 0 65 66" fill="none" xmlns="http://www.w3.org/2000/svg">
<path d="M29.3335 1.75C31.2085 0.875 33.3335 0.875 35.2085 1.75L62.5835 14.375C63.5835 14.875 64.3335 15.875 64.3335 17C64.3335 18.25 63.5835 19.25 62.5835 19.75L35.2085 32.375C33.3335 33.25 31.2085 33.25 29.3335 32.375L1.9585 19.75C0.958496 19.25 0.333496 18.25 0.333496 17C0.333496 15.875 0.958496 14.875 1.9585 14.375L29.3335 1.75ZM62.5835 30.375C63.5835 30.875 64.3335 31.875 64.3335 33C64.3335 34.25 63.5835 35.25 62.5835 35.75L35.2085 48.375C33.3335 49.25 31.2085 49.25 29.3335 48.375L1.9585 35.75C0.958496 35.25 0.333496 34.25 0.333496 33C0.333496 31.875 0.958496 30.875 1.9585 30.375L8.7085 27.25L27.7085 36C30.5835 37.375 33.9585 37.375 36.8335 36L55.8335 27.25L62.5835 30.375ZM36.8335 52L55.8335 43.25L62.5835 46.375C63.5835 46.875 64.3335 47.875 64.3335 49C64.3335 50.25 63.5835 51.25 62.5835 51.75L35.2085 64.375C33.3335 65.25 31.2085 65.25 29.3335 64.375L1.9585 51.75C0.958496 51.25 0.333496 50.25 0.333496 49C0.333496 47.875 0.958496 46.875 1.9585 46.375L8.7085 43.25L27.7085 52C30.5835 53.375 33.9585 53.375 36.8335 52Z" fill="#60A5FA"/>
</svg>
