<svg width="46" height="64" viewBox="0 0 46 64" fill="none" xmlns="http://www.w3.org/2000/svg">
<path d="M0.75 12C0.75 5.375 6 0 12.625 0H33.25C39.875 0 45.125 5.375 45.125 12C45.125 16.25 43 19.875 39.75 22C43 24.25 45.125 27.875 45.125 32.125C45.125 38.625 39.875 44 33.25 44H33C29.875 44 27 42.875 24.875 40.875V52C24.875 58.625 19.375 64 12.75 64C6.125 64 0.75 58.75 0.75 52.125C0.75 47.875 2.875 44.25 6.125 42.125C2.875 39.875 0.75 36.25 0.75 32.125C0.75 27.875 2.875 24.25 6.125 22C2.875 19.875 0.75 16.25 0.75 12ZM21 24H12.625C8.25 24 4.625 27.625 4.625 32.125C4.625 36.5 8.125 40.125 12.625 40.125H21V24ZM24.875 32.125C24.875 36.5 28.5 40.125 33 40.125H33.25C37.625 40.125 41.25 36.5 41.25 32.125C41.25 27.625 37.625 24 33.25 24H33C28.5 24 24.875 27.625 24.875 32.125ZM12.625 44C8.125 44.125 4.625 47.625 4.625 52.125C4.625 56.5 8.25 60.125 12.75 60.125C17.25 60.125 21 56.5 21 52V44H12.625ZM12.625 4C8.25 4 4.625 7.625 4.625 12C4.625 16.5 8.25 20.125 12.625 20.125H21V4H12.625ZM24.875 20.125H33.25C37.625 20.125 41.25 16.5 41.25 12C41.25 7.625 37.625 4 33.25 4H24.875V20.125Z" fill="#60A5FA"/>
</svg>
